<?xml version="1.0" encoding="UTF-8"?>
<svg id="Capa_2" data-name="Capa 2" xmlns="http://www.w3.org/2000/svg" viewBox="0 0 287.35 402">
  <defs>
    <style>
      .cls-1 {
        fill: #e17235;
      }
    </style>
  </defs>
  <g id="Capa_1-2" data-name="Capa 1">
    <g>
      <path d="m261.3,56.38c.41-1.53.03-3.16-1.02-4.34-1.05-1.18-2.62-1.76-4.19-1.53l-33.88,4.95-8.77-10.02,5.53-12.11,33.88-4.95c1.56-.23,2.91-1.23,3.58-2.66.67-1.43.57-3.1-.26-4.45C246.78,6.05,229.28-2.11,211.59.47c-8.52,1.24-16.43,4.88-22.9,10.51-5.53,4.82-9.78,10.88-12.4,17.68L38.25,48.83c-5.81.85-10.94,3.91-14.45,8.62-3.51,4.71-4.97,10.5-4.12,16.31.85,5.81,3.91,10.94,8.62,14.45,4.71,3.51,10.5,4.97,16.31,4.12l138.04-20.17c4.46,5.76,10.27,10.36,16.94,13.39,7.8,3.54,16.43,4.76,24.95,3.52,17.69-2.58,32.12-15.41,36.77-32.68Z"/>
      <g>
        <path d="m29.39,336.87c-4.26,0-8.19-.72-11.78-2.15-3.59-1.43-6.71-3.45-9.35-6.07-2.65-2.62-4.68-5.72-6.11-9.31-1.43-3.59-2.15-7.54-2.15-11.86s.76-8.1,2.27-11.66c1.51-3.56,3.6-6.65,6.27-9.27,2.67-2.62,5.83-4.66,9.47-6.11s7.62-2.19,11.94-2.19c2.7,0,5.34.35,7.93,1.05,2.59.7,5.01,1.74,7.25,3.12,2.24,1.38,4.17,3.01,5.79,4.9l-8.42,9.64c-1.13-1.19-2.34-2.23-3.6-3.12-1.27-.89-2.66-1.58-4.17-2.06-1.51-.49-3.13-.73-4.86-.73-2.16,0-4.2.39-6.11,1.17-1.92.78-3.59,1.89-5.02,3.32-1.43,1.43-2.55,3.17-3.36,5.22-.81,2.05-1.21,4.35-1.21,6.88s.4,4.74,1.21,6.76c.81,2.02,1.94,3.77,3.4,5.22,1.46,1.46,3.22,2.56,5.3,3.32,2.08.76,4.39,1.13,6.92,1.13,1.73,0,3.37-.24,4.94-.73,1.57-.49,3.01-1.15,4.33-1.98,1.32-.84,2.5-1.79,3.52-2.87l6.64,10.53c-1.35,1.51-3.14,2.86-5.38,4.05-2.24,1.19-4.72,2.12-7.45,2.79-2.73.67-5.47,1.01-8.22,1.01Z"/>
        <path d="m66.31,336.06v-56.68h13.76v44.53h25.26v12.15h-39.03Z"/>
        <path d="m120.97,336.06v-11.58h9.55v-33.52h-9.55v-11.58h32.96v11.58h-9.64v33.52h9.64v11.58h-32.96Z"/>
        <path d="m198.05,336.87c-4.26,0-8.19-.72-11.78-2.15-3.59-1.43-6.71-3.45-9.35-6.07-2.65-2.62-4.68-5.72-6.11-9.31-1.43-3.59-2.15-7.54-2.15-11.86s.76-8.1,2.27-11.66c1.51-3.56,3.6-6.65,6.27-9.27,2.67-2.62,5.83-4.66,9.47-6.11s7.62-2.19,11.94-2.19c2.7,0,5.34.35,7.93,1.05,2.59.7,5.01,1.74,7.25,3.12,2.24,1.38,4.17,3.01,5.79,4.9l-8.42,9.64c-1.13-1.19-2.34-2.23-3.6-3.12-1.27-.89-2.66-1.58-4.17-2.06-1.51-.49-3.13-.73-4.86-.73-2.16,0-4.2.39-6.11,1.17-1.92.78-3.59,1.89-5.02,3.32-1.43,1.43-2.55,3.17-3.36,5.22-.81,2.05-1.21,4.35-1.21,6.88s.4,4.74,1.21,6.76c.81,2.02,1.94,3.77,3.4,5.22,1.46,1.46,3.22,2.56,5.3,3.32,2.08.76,4.39,1.13,6.92,1.13,1.73,0,3.37-.24,4.94-.73,1.57-.49,3.01-1.15,4.33-1.98,1.32-.84,2.5-1.79,3.52-2.87l6.64,10.53c-1.35,1.51-3.14,2.86-5.38,4.05-2.24,1.19-4.72,2.12-7.45,2.79-2.73.67-5.47,1.01-8.22,1.01Z"/>
        <path d="m234.97,336.06v-56.68h13.76v56.68h-13.76Zm10.04-16.6l-3.56-11.58,28.1-28.5h16.27l-40.81,40.08Zm26.32,16.6l-21.05-27.69,9.31-8.02,27.77,35.71h-16.03Z"/>
        <path d="m29.5,389.7v-37.42h14.81c1.96,0,3.72.48,5.29,1.44,1.57.96,2.82,2.29,3.74,3.98.93,1.69,1.39,3.59,1.39,5.69,0,2.21-.46,4.18-1.39,5.91-.93,1.73-2.17,3.1-3.74,4.12-1.57,1.02-3.33,1.52-5.29,1.52h-10.64v14.76h-4.17Zm4.17-18.82h10.85c1.1,0,2.09-.33,2.97-.99.87-.66,1.58-1.55,2.11-2.67.53-1.12.8-2.41.8-3.88,0-1.32-.27-2.5-.8-3.56-.53-1.05-1.24-1.89-2.11-2.51-.87-.62-1.86-.94-2.97-.94h-10.85v14.54Z"/>
        <path d="m61.26,389.7v-39.56h4.01v39.56h-4.01Z"/>
        <path d="m82.81,390.24c-2.14,0-3.95-.44-5.43-1.31-1.48-.87-2.6-2.15-3.37-3.82-.77-1.67-1.15-3.76-1.15-6.25v-17.06h4.06v16.25c0,1.89.26,3.47.77,4.73.52,1.27,1.3,2.22,2.35,2.86,1.05.64,2.34.96,3.88.96,1.18,0,2.26-.2,3.26-.61,1-.41,1.87-.97,2.62-1.68.75-.71,1.34-1.55,1.76-2.51s.64-1.98.64-3.05v-16.95h4.01v27.91h-3.96l-.16-5.88.64-.32c-.43,1.25-1.14,2.38-2.14,3.4-1,1.02-2.18,1.83-3.56,2.43-1.37.61-2.79.91-4.25.91Z"/>
        <path d="m103.98,389.7v-27.91h4.01l.11,6.36-.8.27c.29-1.07.76-2.04,1.42-2.91.66-.87,1.45-1.63,2.38-2.27s1.94-1.13,3.05-1.47c1.1-.34,2.26-.51,3.47-.51,1.46,0,2.77.24,3.93.72s2.14,1.3,2.94,2.46c.8,1.16,1.42,2.68,1.84,4.57l-.96-.48.37-.91c.36-.82.88-1.61,1.58-2.38.7-.77,1.5-1.45,2.41-2.06.91-.61,1.91-1.08,2.99-1.42,1.09-.34,2.2-.51,3.34-.51,1.96,0,3.62.42,4.97,1.26,1.35.84,2.38,2.11,3.07,3.82.69,1.71,1.04,3.89,1.04,6.52v16.84h-4.12v-16.63c0-1.85-.23-3.37-.7-4.54-.46-1.18-1.15-2.06-2.06-2.65-.91-.59-2.06-.88-3.45-.88-1.21,0-2.33.21-3.34.62-1.02.41-1.89.98-2.62,1.71-.73.73-1.3,1.56-1.71,2.49-.41.93-.62,1.92-.62,2.99v16.89h-4.06v-16.68c0-1.78-.24-3.26-.72-4.44-.48-1.18-1.19-2.07-2.11-2.67-.93-.61-2.07-.91-3.42-.91-1.18,0-2.26.21-3.26.62-1,.41-1.86.97-2.59,1.68-.73.71-1.3,1.53-1.71,2.46-.41.93-.61,1.92-.61,2.99v16.95h-4.06Z"/>
        <path d="m166.91,390.24c-1.32,0-2.6-.21-3.85-.61-1.25-.41-2.38-.97-3.4-1.68-1.02-.71-1.87-1.53-2.57-2.46-.69-.93-1.17-1.89-1.42-2.89l1.18.05-.16,7h-3.96v-39.51h4.01v18.34l-.8.21c.25-1,.7-1.95,1.36-2.86.66-.91,1.49-1.71,2.49-2.41,1-.69,2.09-1.24,3.29-1.63,1.19-.39,2.43-.59,3.72-.59,2.49,0,4.73.62,6.71,1.87,1.98,1.25,3.56,2.96,4.73,5.13,1.18,2.17,1.76,4.67,1.76,7.48s-.57,5.32-1.71,7.51c-1.14,2.19-2.7,3.91-4.68,5.16-1.98,1.25-4.21,1.87-6.71,1.87Zm-.64-3.8c1.89,0,3.56-.47,5.03-1.42,1.46-.94,2.61-2.23,3.45-3.85.84-1.62,1.26-3.45,1.26-5.48s-.42-3.9-1.26-5.51c-.84-1.6-1.99-2.87-3.45-3.8-1.46-.93-3.14-1.39-5.03-1.39s-3.56.46-5.03,1.39c-1.46.93-2.61,2.19-3.45,3.8-.84,1.6-1.26,3.44-1.26,5.51s.42,3.91,1.26,5.53c.84,1.62,1.99,2.9,3.45,3.82,1.46.93,3.14,1.39,5.03,1.39Z"/>
        <path d="m188.88,355.75c-1,0-1.76-.26-2.27-.78-.52-.52-.77-1.22-.77-2.11s.27-1.6.8-2.14c.53-.53,1.28-.8,2.25-.8s1.71.26,2.25.78c.53.52.8,1.24.8,2.17,0,.86-.27,1.55-.8,2.08-.54.53-1.28.8-2.25.8Zm-1.98,33.95v-27.91h4.01v27.91h-4.01Z"/>
        <path d="m199.68,389.7v-27.91h3.96l.16,5.83-.64.27c.36-1.21,1.05-2.32,2.08-3.31,1.03-1,2.27-1.81,3.72-2.43,1.44-.62,2.93-.94,4.46-.94,2.07,0,3.8.41,5.19,1.23,1.39.82,2.44,2.08,3.15,3.8s1.07,3.89,1.07,6.52v16.95h-4.06v-16.73c0-1.85-.24-3.38-.72-4.57-.48-1.19-1.22-2.08-2.22-2.65-1-.57-2.23-.84-3.69-.8-1.21,0-2.33.21-3.37.61-1.03.41-1.92.97-2.67,1.68-.75.71-1.34,1.53-1.76,2.46-.43.93-.64,1.92-.64,2.99v17h-4.01Z"/>
        <path d="m242.5,402c-2.07,0-4.03-.32-5.88-.96-1.85-.64-3.39-1.44-4.6-2.41l1.6-3.37c.71.57,1.54,1.08,2.49,1.52.94.45,1.97.8,3.07,1.07,1.1.27,2.23.4,3.37.4,2.07,0,3.82-.38,5.27-1.15,1.44-.77,2.55-1.9,3.31-3.4s1.15-3.35,1.15-5.56v-5.35l.64-.16c-.32,1.35-1.02,2.61-2.08,3.77-1.07,1.16-2.37,2.08-3.9,2.78-1.53.69-3.15,1.04-4.87,1.04-2.6,0-4.93-.62-6.98-1.87-2.05-1.25-3.66-2.97-4.84-5.16-1.18-2.19-1.76-4.68-1.76-7.46s.6-5.32,1.79-7.51c1.19-2.19,2.81-3.91,4.84-5.16,2.03-1.25,4.31-1.87,6.84-1.87,1.1,0,2.17.13,3.21.4,1.03.27,1.99.65,2.86,1.15.87.5,1.67,1.07,2.38,1.71.71.64,1.31,1.34,1.79,2.09.48.75.83,1.52,1.04,2.3l-1.12-.16.16-6.9h4.01v26.2c0,2.25-.32,4.23-.96,5.96-.64,1.73-1.58,3.19-2.81,4.38-1.23,1.19-2.69,2.1-4.38,2.73-1.69.62-3.57.94-5.64.94Zm.05-15.61c1.89,0,3.57-.45,5.05-1.36,1.48-.91,2.65-2.17,3.5-3.77s1.28-3.46,1.28-5.56-.42-3.9-1.26-5.51c-.84-1.6-2-2.87-3.5-3.8-1.5-.93-3.19-1.39-5.08-1.39s-3.63.46-5.11,1.39c-1.48.93-2.65,2.19-3.5,3.8-.86,1.6-1.28,3.44-1.28,5.51s.42,3.86,1.26,5.48c.84,1.62,2,2.9,3.47,3.82,1.48.93,3.2,1.39,5.16,1.39Z"/>
      </g>
      <path id="cursor-click" d="m137.69,20.62c-.32-1.91-2.14-3.18-4.04-2.86l-10.27,1.86c-1.9.34-3.17,2.17-2.82,4.07.24,1.31,1.19,2.37,2.46,2.74.52.15,1.07.18,1.6.08l10.27-1.86c1.88-.35,3.13-2.15,2.8-4.03Zm-51.33,9.25h0c-.35-1.91-2.17-3.17-4.07-2.82l-10.27,1.86c-1.31.24-2.37,1.19-2.74,2.47-.54,1.85.53,3.8,2.38,4.34.52.15,1.07.18,1.6.08l10.27-1.86c1.9-.34,3.17-2.17,2.82-4.07Zm6.8-15.83l-7.49-7.63s-.07-.07-.11-.11c-1.38-1.35-3.6-1.32-4.95.07-1.34,1.39-1.32,3.6.07,4.95l7.5,7.62c.41.43.93.75,1.5.92,1.22.36,2.54.03,3.45-.86,0,0,0,0,.02-.01,1.37-1.36,1.38-3.58.03-4.95ZM110.99,1.02c-1.85-.54-3.8.52-4.34,2.38l-2.62,8.96c-.54,1.85.52,3.8,2.38,4.34s3.8-.52,4.35-2.37l2.62-8.96c.54-1.85-.52-3.8-2.38-4.34Z"/>
      <g>
        <path d="m215.34,193.06l2.71-57.59c0-10.86-8.84-19.71-19.8-19.71-3.47,0-6.74.9-9.57,2.5-1.27-9.64-9.57-17.1-19.62-17.1-3.47.01-6.73.91-9.57,2.49-.33-2.45-1.12-4.77-2.26-6.86-3.37-6.09-9.87-10.23-17.36-10.23-3.4,0-6.6.86-9.39,2.38v-25.86c0-10.86-8.84-19.71-19.8-19.7-10.87-.01-19.71,8.83-19.71,19.71v99.36s-34.1-24.84-34.1-24.84c-9.1-6.83-22.02-5.91-30.07,2.14-6.03,6.03-6.03,15.85,0,21.89l68.81,68.81c10.72,10.72,24.97,16.63,40.14,16.63h22.96c15.14,0,29.37-5.89,40.08-16.6,9.99-9.99,15.87-23.28,16.54-37.41Zm-56.63,43.7h-22.96c-12.41,0-24.06-4.83-32.83-13.6l-68.81-68.81c-2.02-2.02-2.02-5.28,0-7.29,4.44-4.44,11.57-4.95,16.65-1.13l42.34,30.85c1.58,1.14,3.65,1.31,5.38.43,1.72-.88,2.82-2.65,2.82-4.59v-76.24s0-33.26,0-33.26c0-5.18,4.22-9.4,9.49-9.41,2.58,0,4.94,1.06,6.64,2.76s2.75,4.05,2.75,6.65v73.02c0,2.85,2.31,5.16,5.16,5.16,1.42-.01,2.71-.59,3.65-1.52.93-.93,1.51-2.22,1.51-3.65v-29.82c0-5.18,4.21-9.39,9.48-9.39,5.17,0,9.39,4.23,9.39,9.39v29.83c0,2.85,2.31,5.16,5.16,5.16,1.42-.01,2.71-.58,3.65-1.52s1.51-2.23,1.51-3.66v-15.22c0-5.18,4.21-9.39,9.48-9.38,5.16,0,9.39,4.22,9.39,9.39v15.29s0,.02,0,.02v.02h0v.03s0,.01,0,.01c0,0,0,.01,0,.01.08,2.78,2.37,5.02,5.16,5.01,2.84,0,5.15-2.31,5.16-5.16v-.63c0-2.51.98-4.88,2.75-6.65,1.78-1.78,4.13-2.75,6.73-2.75,5.17.02,9.37,4.23,9.4,9.15l-2.71,57.35c-.55,11.55-5.35,22.42-13.53,30.6-8.76,8.76-20.4,13.58-32.79,13.58Z"/>
        <path class="cls-1" d="m191.49,223.18c-8.76,8.76-20.4,13.58-32.79,13.58h-22.96c-12.41,0-24.06-4.83-32.83-13.6l-68.81-68.81c-2.02-2.02-2.02-5.28,0-7.29,4.44-4.44,11.57-4.95,16.65-1.13l42.34,30.85c1.58,1.14,3.65,1.31,5.38.43,1.72-.88,2.82-2.65,2.82-4.59v-76.24s0-33.26,0-33.26c0-5.18,4.22-9.4,9.49-9.41,2.58,0,4.94,1.06,6.64,2.76s2.75,4.05,2.75,6.65v73.02c0,2.85,2.31,5.16,5.16,5.16,1.42-.01,2.71-.59,3.65-1.52.93-.93,1.51-2.22,1.51-3.65v-29.82c0-5.18,4.21-9.39,9.48-9.39,5.17,0,9.39,4.23,9.39,9.39v29.83c0,2.85,2.31,5.16,5.16,5.16,1.42-.01,2.71-.58,3.65-1.52s1.51-2.23,1.51-3.66v-15.22c0-5.18,4.21-9.39,9.48-9.38,5.16,0,9.39,4.22,9.39,9.39v15.29s0,.02,0,.02v.02h0v.03s0,.01,0,.01c0,0,0,.01,0,.01.08,2.78,2.37,5.02,5.16,5.01,2.84,0,5.15-2.31,5.16-5.16v-.63c0-2.51.98-4.88,2.75-6.65,1.78-1.78,4.13-2.75,6.73-2.75,5.17.02,9.37,4.23,9.4,9.15l-2.71,57.35c-.55,11.55-5.35,22.42-13.53,30.6Z"/>
      </g>
    </g>
  </g>
</svg>